#!OML:ASF F:\VICON\USERDATA\INSTALL\rory3\rory3.ASF
:FULLY-SPECIFIED
:DEGREES
280
root 0.46029754951845847 17.593308079102297 61.47842485912747 -1.448379361257696 -2.320478893063664 -3.3891414377276656
lfemur -14.069801865996057 -1.5703135704390518 -17.31514322329548
ltibia 29.926781757609678
lfoot -3.000431262173011 1.1989194673625434
ltoes -7.202931482994134
rfemur -15.090515859738268 3.926961749151247 26.219938524388997
rtibia 39.13406996488015
rfoot -5.877524531270961 -10.449981729692905
rtoes 3.7621701326676735
lowerback 11.635214964140346 0.5280680612607483 2.8243529686146784
upperback -0.08698869682928924 1.3392918349103002 2.0124508319346956
thorax -6.31741368482838 0.6262576724054323 -0.3215695549578659
lowerneck -16.27084771067982 -3.1604859533612126 -3.388930456352167
upperneck 21.91731438265936 -3.9254397160411667 1.796694583395263
head 9.632484525280946 -1.8707957395640138 0.7395191481645744
lclavicle -2.0247277453926875e-15 -7.106482453996964e-16
lhumerus -31.462893322942893 1.1688796280130247 81.00377656233125
lradius 28.788385988590292
lwrist 5.925524900287882
lhand -29.871530915105634 19.334532785446918
lfingers 7.12502
lthumb -2.844730408581406 49.55708271705378
rclavicle -2.027325829211124e-15 -7.12288078658029e-16
rhumerus -30.042368226678214 -21.787794527773947 -75.2093332594408
rradius 20.615464811365975
rwrist 6.2817831454440425
rhand -17.72723613416282 21.329154279886403
rfingers 7.12502
rthumb 7.906472683905226 -7.607735629901773
281
root 0.46811641365404544 17.60456282091222 61.528962132525244 -1.660241301748047 -2.278823348534494 -3.094807425068126
lfemur -14.258848332854999 -1.6743657255380373 -17.49554763573852
ltibia 29.35334875568612
lfoot -3.2586537529327457 0.9973674710719842
ltoes -6.229110255351818
rfemur -14.998475538844906 3.6549460107208236 26.01137776121595
rtibia 39.325917203750706
rfoot -5.706019874744186 -10.37397774109748
rtoes 3.6648066594652327
lowerback 11.690124926334045 0.5297862120343648 2.539246300952329
upperback -0.03415308563820153 1.280846164045664 1.9872319180342977
thorax -6.3070538536640175 0.6066195724216079 -0.2343146584367235
lowerneck -16.274536351821833 -3.161852908520887 -3.3815033724667947
upperneck 21.941116769887557 -3.925273380702183 1.815497468765106
head 9.642279990971945 -1.8682207096787828 0.7450190106776735
lclavicle -2.0243160610559026e-15 -7.103849287200035e-16
lhumerus -31.761121251199654 1.3606046610085292 80.91814977322092
lradius 28.51836507040609
lwrist 5.521563556517384
lhand -29.79316201655155 19.770079246877067
lfingers 7.12502
lthumb -2.789741433757392 49.98298583902015
rclavicle -2.0265384413263066e-15 -7.117853003366527e-16
rhumerus -29.869125029451812 -21.862326777562767 -75.0863114503991
rradius 20.69518607981761
rwrist 6.150032131967073
rhand -17.66794741899191 21.374161861782355
rfingers 7.12502
rthumb 7.981959580112982 -7.452921157873256
282
root 0.4731567688415815 17.638295553150225 61.64880142784935 -1.8043152389513744 -2.2932614372922973 -3.0563391822366346
lfemur -14.387047160536241 -1.7250724105626705 -17.478404445721154
ltibia 28.964718727400037
lfoot -2.809148348960152 0.5904851930088606
ltoes -6.57666694986597
rfemur -15.145830172869863 3.4257457107416025 25.871337662965836
rtibia 39.43949359232803
rfoot -5.498878736446817 -10.345679304974956
rtoes 3.3182668160735593
lowerback 11.750566746351533 0.5581236961098675 2.4307082018286876
upperback -0.01399114568912202 1.296420975994035 2.001568894800007
thorax -6.299988027577067 0.6207628249678704 -0.1836965038713001
lowerneck -16.280095015583957 -3.165780391111235 -3.3729917503344273
upperneck 21.986133203608 -3.9350545961609873 1.8182218230884764
head 9.656663816577662 -1.873052731806928 0.7455204397452244
lclavicle -2.0247597037385517e-15 -7.106695773535255e-16
lhumerus -32.08273603336563 1.6518811027560343 80.80142018051033
lradius 28.0554117860312
lwrist 5.415401967979596
lhand -29.627936184503188 19.821990286141364
lfingers 7.12502
lthumb -2.633275434785491 50.185271637878195
rclavicle -2.0269344165363196e-15 -7.120381416378798e-16
rhumerus -29.726429404752217 -21.871732489313224 -75.00706093811073
rradius 20.720875680496235
rwrist 5.966855323076592
rhand -17.614531000212995 21.32148535345699
rfingers 7.12502
rthumb 8.05029275938039 -7.490738899931766
283
root 0.47851967004639484 17.66567438463491 61.9042378788736 -1.9797644365199032 -2.1723081206975627 -2.4877849710592415
lfemur -14.27955107202641 -1.927105251795362 -18.06412203057876
ltibia 28.40309051032734
lfoot -2.058304240514355 -0.021839412722494345
ltoes -6.521440156247669
rfemur -15.580844471876613 3.0135665116934676 25.21936661811957
rtibia 39.74976764327278
rfoot -5.3987266420975955 -10.234861084829346
rtoes 3.4277066454961735
lowerback 11.774394499267071 0.508216668966806 1.9488252224511717
upperback 0.05726172722110531 1.1505545989354218 1.9221461326208609
thorax -6.28402259575487 0.5563663104454766 -6.597510592531997e-05
lowerneck -16.29626815670518 -3.1570061106263956 -3.362604394656458
upperneck 22.006943335115825 -3.9200267365114634 1.8511593758649187
head 9.659194291626552 -1.8652924800309294 0.7593060488765608
lclavicle -2.0244946292561793e-15 -7.105000055778463e-16
lhumerus -32.45582467829139 1.8652306412960142 80.66602515305094
lradius 27.77772145567021
lwrist 5.915442896873609
lhand -29.524664009623358 19.680164159982585
lfingers 7.12502
lthumb -2.586629810570651 50.08559401015281
rclavicle -2.0268175933188855e-15 -7.119635435174962e-16
rhumerus -29.573467413346844 -21.91147511157036 -74.93767072332165
rradius 20.78521717446194
rwrist 5.858013701003381
rhand -17.48208435144734 21.34550145415099
rfingers 7.12502
rthumb 8.139911075695753 -7.402052209276357
284
root 0.4808739032199062 17.695187279967815 62.13183509639547 -2.0655694552053965 -1.9472377979330195 -2.1378882341376118
lfemur -13.79863408924892 -2.1349696099513644 -18.505849710318905
ltibia 27.975186855874178
lfoot -1.3013802813933069 -0.8775334013773572
ltoes -6.681082142166384
rfemur -16.186781761608813 2.674262962578807 24.685713500573403
rtibia 40.03355679525445
rfoot -5.3865932372819305 -10.251048692384874
rtoes 3.6317237625471352
lowerback 11.815544611353747 0.4107971243598405 1.6284892812243994
upperback 0.1059267450862725 0.9683316431863291 1.8676406432300474
thorax -6.256696084610303 0.47061294187947 0.1986994370784867
lowerneck -16.288737121008726 -3.146464988757061 -3.3653090508926935
upperneck 22.023146774247245 -3.9058172397259225 1.8681790749247724
head 9.655576537941403 -1.8610695262233512 0.7669593196743149
lclavicle -2.0249654918563545e-15 -7.10801593042056e-16
lhumerus -32.81704571589155 1.8992483077544262 80.54535166938521
lradius 27.491394297912965
lwrist 6.134001745678235
lhand -29.436783279676433 19.706921252547737
lfingers 7.12502
lthumb -2.545111335663017 50.08668183805525
rclavicle -2.0268268356963216e-15 -7.119694367044481e-16
rhumerus -29.43806149509204 -21.744439219186493 -75.01959663328981
rradius 20.900128293702917
rwrist 5.471718215443167
rhand -17.335325276682052 21.367584407433334
rfingers 7.12502
rthumb 8.266297369734815 -7.162667290929012
285
root 0.48122200306355 17.724694539177406 62.285126489933525 -2.0897427950943186 -1.707263379228634 -1.9078225993979743
lfemur -13.134302840297247 -2.3855113135371355 -18.808078844841333
ltibia 27.266030500974114
lfoot 0.018337121246192467 -1.5310511967890923
ltoes -6.995107182972259
rfemur -16.85313293186112 2.528298725740993 24.283996430386974
rtibia 39.95493795494415
rfoot -5.442894180480282 -10.401484058614523
rtoes 3.979975589908891
lowerback 11.81967074240875 0.27613184562304216 1.4199886133402186
upperback 0.15096009990163256 0.7589850649774526 1.8333483487400288
thorax -6.22331638877814 0.36352924685535304 0.3500793096660235
lowerneck -16.320382822767936 -3.130443902611809 -3.361377712592125
upperneck 22.048101236856294 -3.8817612086705577 1.8643828975301264
head 9.65906806030101 -1.8544699697025888 0.7700013258016859
lclavicle -2.025391515541366e-15 -7.110734485889555e-16
lhumerus -33.0296893664227 1.998932053568765 80.37909347513319
lradius 27.28291279576977
lwrist 6.354310186654689
lhand -29.395322363058007 19.68200657907155
lfingers 7.12502
lthumb -2.5323048925949982 50.08360114179245
rclavicle -2.0269927037106965e-15 -7.120753580138886e-16
rhumerus -29.258613968665767 -21.56200474765184 -75.1422610703558
rradius 21.0110009791701
rwrist 5.327460378476413
rhand -17.205532115525116 21.378453201146435
rfingers 7.12502
rthumb 8.331623473284544 -7.135593646495373
286
root 0.4815403559770729 17.737207868303894 62.46518058542044 -2.022736273045587 -1.6612429936175004 -2.140142748542048
lfemur -12.40338715076582 -2.449871357294814 -18.68660803610283
ltibia 26.68014696953388
lfoot 1.116381343446708 -2.3924447613029174
ltoes -6.926558549664864
rfemur -17.621520738487863 2.5632481574388826 24.463674130241298
rtibia 39.850966679265035
rfoot -5.4538763540383695 -10.629159804272916
rtoes 3.8506617143399255
lowerback 11.798445838813725 0.20958902231052434 1.5344043689634164
upperback 0.18903678678118638 0.6942171229655043 1.8677008213718518
thorax -6.16932159743066 0.33223960477718373 0.4161570488791906
lowerneck -16.334678438772197 -3.10789856059016 -3.3834293520478798
upperneck 22.054792697453447 -3.8410901659731262 1.8368949652330524
head 9.66536827639747 -1.8427306603773712 0.7672606810806701
lclavicle -2.0260770162975016e-15 -7.115113283895853e-16
lhumerus -33.23436388730756 2.022479355812342 80.22919737180396
lradius 27.0926025516446
lwrist 6.397853018499445
lhand -29.364224681647062 19.453992316329373
lfingers 7.12502
lthumb -2.4707272725808194 49.914693089202
rclavicle -2.026598597359258e-15 -7.118237055891418e-16
rhumerus -29.16505199290127 -21.33979339630195 -75.23956256615124
rradius 21.14193446269207
rwrist 5.199436271208596
rhand -17.071371787384432 21.369571129609522
rfingers 7.12502
rthumb 8.406850783443423 -6.954506830048155
